<svg width="12" height="10" viewBox="0 0 12 10" fill="none" xmlns="http://www.w3.org/2000/svg">
<path fill-rule="evenodd" clip-rule="evenodd" d="M0.0977881 4.40589H11.4368C11.6909 5.85336 11.1263 6.94873 10.1311 7.70082L10.835 8.76989C11.1721 9.28177 10.3981 9.79139 10.0611 9.27945L9.34008 8.18443C7.28335 9.2073 4.2038 9.19572 2.14934 8.19632L1.43617 9.27945C1.09906 9.79133 0.325226 9.28178 0.662247 8.7699L1.35413 7.71907C0.324588 6.95928 -0.23983 5.85221 0.0979114 4.40583L0.0977881 4.40589ZM6.42062 2.60799C6.35883 2.84271 6.271 2.97313 6.12386 3.07936C5.95816 1.95686 5.41752 1.81029 5.80002 0.831113C4.81646 2.07287 4.76108 3.35852 5.72955 4.09127C3.68695 3.42527 4.45959 1.6118 6.09887 0.199982C5.96572 0.943762 6.07717 1.47967 6.30851 1.90694C6.49856 1.79178 6.61227 1.56992 6.64288 1.15135C7.0318 2.21769 7.50663 3.73245 6.02742 4.0801C6.55835 3.65717 6.6199 3.26175 6.42061 2.60781L6.42062 2.60799Z" fill="#FFE55F"/>
</svg>
