<svg width="137" height="42" viewBox="0 0 137 42" fill="none" xmlns="http://www.w3.org/2000/svg">
<g clip-path="url(#clip0_1_306)">
<ellipse cx="21.0348" cy="21" rx="21.0348" ry="21" fill="white"/>
<mask id="mask0_1_306" style="mask-type:alpha" maskUnits="userSpaceOnUse" x="0" y="0" width="43" height="42">
<ellipse cx="21.0348" cy="21" rx="21.0348" ry="21" fill="white"/>
</mask>
<g mask="url(#mask0_1_306)">
<path d="M14.9284 22.4913C14.7298 22.5606 14.6238 22.6337 14.4252 22.832C13.5036 23.7562 12.8018 26.29 12.9445 28.1749C13.0679 29.823 13.7118 31.1784 14.5775 31.6116C14.6971 31.6713 14.6971 31.6732 14.6971 31.7541C14.6971 31.7984 14.7144 32.5743 14.7395 33.4792C14.7857 35.291 14.7857 35.2929 14.6855 36.966C14.5794 38.7778 14.3693 41.5869 14.244 42.8865C14.1283 44.0783 14.0608 45.3278 14.0878 45.736C14.1244 46.2597 14.2845 46.6255 14.5737 46.8411C14.7144 46.9432 14.7877 46.9817 14.9593 47.0394C15.1501 47.103 15.4798 47.103 15.6649 47.0394C16.172 46.8642 16.4323 46.3945 16.4323 45.6436C16.4323 45.53 16.4111 45.1545 16.3841 44.806C16.3571 44.4595 16.2395 42.9462 16.1238 41.4425C16.0062 39.9388 15.8905 38.4274 15.8635 38.0827C15.8172 37.4993 15.7787 37.0969 15.6803 36.1863C15.5647 35.1254 15.5454 34.6017 15.5917 33.8758C15.6399 33.1173 15.6611 32.5743 15.6611 32.093V31.6578L15.8114 31.5693C16.5923 31.113 17.1495 30.0078 17.3519 28.5137C17.3943 28.1903 17.4001 27.193 17.3616 26.8291C17.1476 24.8729 16.4419 23.1343 15.6495 22.6087C15.4201 22.4566 15.1521 22.4123 14.9284 22.4913Z" fill="#005B61"/>
<path d="M8.72072 22.8455C8.69759 22.8744 8.68024 22.9013 8.68024 22.909C8.68024 22.9148 8.66096 23.0034 8.63975 23.1035C8.60504 23.2652 8.59926 23.3673 8.59348 23.9988C8.57998 25.5949 8.54528 28.1383 8.53371 28.4329L8.52214 28.7448L8.4643 28.7929C8.4026 28.8449 8.32548 28.8545 8.24644 28.8179C8.13461 28.7679 8.14039 28.9354 8.15196 25.9107C8.1616 23.7832 8.15775 23.1112 8.14039 23.0457C8.09991 22.8936 8.02857 22.8532 7.95338 22.9341C7.87626 23.0188 7.86662 23.0669 7.86083 23.3326C7.85698 23.477 7.84541 23.7812 7.83384 24.0084C7.82227 24.2356 7.77793 25.154 7.73551 26.0493C7.6931 26.9446 7.6449 27.8841 7.62947 28.1383C7.57742 28.9508 7.57163 29.436 7.60826 29.6843C7.70852 30.3621 8.06327 30.9069 8.56648 31.1592C8.6571 31.2054 8.74193 31.2458 8.75543 31.2497C8.86918 31.2882 8.89425 32.5512 8.8152 34.4149C8.73808 36.2325 8.55492 39.2687 8.36212 41.8853C8.34669 42.0971 8.31199 42.5726 8.285 42.9442C8.258 43.3139 8.21366 43.903 8.18859 44.2515C8.1616 44.6 8.14039 45.0082 8.14039 45.1564C8.14039 45.788 8.29078 46.2096 8.62625 46.5273C8.84605 46.7333 9.05234 46.8238 9.30684 46.8238C9.57483 46.8238 9.80812 46.716 10.0414 46.4869C10.2766 46.2539 10.3962 46.0248 10.4752 45.6493C10.5678 45.2007 10.5273 44.6193 10.1918 41.6639C9.85247 38.6661 9.76571 37.7034 9.70015 36.1862C9.67702 35.6702 9.69051 31.8234 9.71558 31.4306L9.72714 31.2381L9.87946 31.1649C10.1417 31.0379 10.4579 30.7009 10.6237 30.3717C10.695 30.2273 10.7895 29.9635 10.8184 29.823C10.8782 29.5245 10.8782 29.4822 10.7316 26.4055C10.6545 24.7535 10.5851 23.3211 10.5793 23.2248C10.5678 23.065 10.56 23.04 10.5118 22.988C10.454 22.9264 10.3942 22.9148 10.3595 22.9572C10.2921 23.038 10.2901 23.0746 10.2805 25.9203L10.2708 28.7294L10.2169 28.7756C10.1378 28.843 10.026 28.8391 9.95079 28.766C9.89488 28.7101 9.89488 28.7082 9.89488 28.481C9.89295 27.9342 9.85247 24.6188 9.83897 23.8929C9.8274 23.4019 9.81391 23.0669 9.80041 23.0246C9.74257 22.8378 9.61532 22.7954 9.54013 22.9398C9.50157 23.0111 9.49964 23.0515 9.49578 23.5463C9.48807 24.3762 9.44951 27.1756 9.43409 27.9785C9.41674 28.7871 9.41866 28.7833 9.28563 28.8199C9.20658 28.841 9.11597 28.8141 9.06584 28.7544C9.03306 28.7159 9.03306 28.6812 8.99065 25.5294C8.97908 24.6245 8.9598 23.7774 8.95016 23.6465C8.93859 23.5155 8.93088 23.3268 8.93088 23.2267C8.93088 23.0188 8.90581 22.8936 8.85183 22.8359C8.8017 22.782 8.76893 22.7858 8.72072 22.8455Z" fill="#005B61"/>
</g>
<g clip-path="url(#clip1_1_306)">
<path d="M14.5326 8.15122C14.4664 8.18054 14.3272 8.27091 14.2223 8.35351C13.8901 8.61112 13.6958 8.74085 13.5793 8.78049C13.405 8.84339 13.2921 8.92019 13.1614 9.06344C13.0144 9.2234 12.8951 9.43793 12.8338 9.64565C12.7524 9.92019 12.5257 10.1281 12.061 10.3548C11.6579 10.5529 11.4391 10.6771 11.3283 10.7677C11.1867 10.8867 10.7604 11.3832 10.3237 11.9331C9.83236 12.5554 9.81472 12.6077 9.78288 13.4143C9.75486 14.1707 9.70642 14.4 9.51155 14.7184C9.3761 14.9355 9.31194 15.1106 9.27565 15.3568C9.255 15.5086 9.25791 15.5859 9.29978 15.8481C9.35828 16.1995 9.4272 16.3796 9.62198 16.667C9.85663 17.0118 10.1438 17.5228 10.3611 17.9812C10.518 18.3123 10.5829 18.4082 10.8308 18.6731C11.1023 18.9673 11.7256 19.5265 11.8407 19.5814C12.0299 19.6717 12.211 19.6808 12.582 19.6221C12.7641 19.5933 12.945 19.5576 12.985 19.5419C13.0924 19.5037 13.3573 19.5349 13.6828 19.6202C14.1097 19.7342 14.1435 19.7383 14.415 19.693C14.5948 19.6646 14.7528 19.6184 15.0317 19.5154L15.4068 19.3783L15.5343 19.4076C15.8511 19.4825 16.0054 19.4722 16.4348 19.3501L16.5544 19.3147L16.673 19.4068C16.7436 19.464 16.8623 19.6008 16.9752 19.7598C17.2703 20.1728 17.4671 20.2808 17.8818 20.2435C18.1336 20.2226 18.2512 20.2488 18.4364 20.3727C18.4998 20.4146 18.5897 20.5041 18.6356 20.5699C18.7086 20.6715 18.7248 20.7138 18.7478 20.8728C18.7847 21.1334 18.7608 21.3092 18.6232 21.7789C18.4683 22.3032 18.4556 22.416 18.4997 22.6919C18.5496 23.0046 18.6121 23.115 18.9335 23.4555C19.403 23.9541 19.6693 24.3788 19.7928 24.8261C19.948 25.3838 20.263 26.8381 20.2523 26.9341C20.2267 27.1432 20.1251 27.3502 19.7708 27.9131C19.5488 28.2688 19.4931 28.4379 19.4914 28.7824C19.4889 29.358 19.6412 29.7794 20.2142 30.778C20.3446 31.0026 20.473 31.244 20.5001 31.3104C20.531 31.3857 20.6019 31.7257 20.6913 32.2114C20.8578 33.1209 20.842 33.081 21.2305 33.6938C21.6532 34.3578 21.7988 34.7073 21.8062 35.0644C21.8074 35.1609 21.8234 35.2904 21.8406 35.3537C21.9132 35.6157 22.194 35.8801 22.4359 35.9149C22.5087 35.927 22.7026 35.9129 22.976 35.8791C23.5462 35.8101 23.7327 35.8089 23.7928 35.8749C23.8956 35.9859 23.9424 35.9832 24.7612 35.8137C25.1705 35.7278 25.6983 35.6302 25.9337 35.5953C26.3124 35.5402 26.3828 35.522 26.5552 35.4476C27.0105 35.2507 27.4745 34.9015 28.0148 34.3493C28.3704 33.9866 28.6026 33.6505 28.7157 33.338C28.8288 33.0254 28.9552 32.8852 29.3185 32.6745C29.656 32.4797 29.8141 32.3156 29.8662 32.1094C29.8938 32.0013 29.8906 31.9216 29.8427 31.5331C29.7808 31.0125 29.7894 30.9333 29.9335 30.7408C30.1516 30.4494 30.4381 30.2462 31.1301 29.8892C31.7239 29.5832 31.8098 29.5295 31.9217 29.3869C32.1281 29.1256 32.1842 28.7372 32.1425 27.855C32.1317 27.654 32.1063 27.4953 32.0286 27.1422C31.7912 26.0552 31.7478 25.4727 31.872 24.9486C31.9389 24.6575 32.1163 24.363 32.3702 24.1178C32.4312 24.0563 32.7527 23.732 33.0816 23.3948C33.4105 23.0575 33.822 22.6601 33.9919 22.5106C34.6536 21.9345 34.9312 21.6313 35.1468 21.2507C35.3279 20.9344 35.7563 19.8742 35.9057 19.3744C35.9808 19.1197 35.9883 19.0784 35.9614 18.9837C35.876 18.686 35.5246 18.4681 35.2436 18.5432C35.1844 18.5572 35.0387 18.6062 34.9221 18.6459C34.7948 18.6919 34.5992 18.7393 34.4333 18.7656C34.1982 18.8027 34.1276 18.8045 33.9628 18.7787C33.7302 18.7423 33.5539 18.6594 33.4271 18.531C33.3166 18.4164 33.2715 18.341 33.0814 17.9349C32.8577 17.4517 32.8227 17.41 32.4016 17.1254C32.0812 16.9096 31.7607 16.5006 31.5336 16.0108C31.4727 15.8813 31.3525 15.6905 31.2168 15.5069C30.9576 15.1565 30.8634 14.9804 30.8333 14.7919C30.7785 14.4493 30.5962 14.0773 30.2494 13.5923C30.0032 13.2493 29.8466 12.9935 29.7579 12.793C29.7205 12.707 29.549 12.3876 29.3777 12.0846C29.0417 11.4894 28.7202 10.8825 28.6463 10.7009C28.5264 10.4087 28.1903 10.3015 27.5726 10.3544C27.1369 10.3926 26.595 10.2543 25.5785 9.85158L25.0842 9.65626L24.1765 9.69838C23.3249 9.73636 23.2665 9.74087 23.2144 9.78446L23.1584 9.83339L22.9868 9.69079C22.6653 9.42336 22.3643 9.2847 22.0843 9.27711C21.9063 9.27224 21.7762 9.2268 21.6296 9.12267C21.3631 8.93377 21.2856 8.72914 21.3475 8.37752C21.4151 8.00144 21.3878 7.84544 21.2409 7.72486C21.1589 7.65531 21.1566 7.65567 20.9699 7.68518C20.6312 7.73874 20.4087 7.7362 19.4523 7.66579C18.8664 7.62168 18.5113 7.64717 18.179 7.75627C18.0198 7.80973 17.9684 7.81315 17.2213 7.82517C16.7877 7.83242 16.3905 7.84571 16.3375 7.85409C16.2104 7.87183 16.0625 7.95179 15.8464 8.12268L15.6659 8.26438L15.5059 8.2543C15.2954 8.23807 15.1365 8.20427 14.9873 8.14299C14.8354 8.07977 14.6915 8.0813 14.5326 8.15122Z" fill="#005B61"/>
<path d="M10.343 11.7995C10.3268 11.8162 10.3263 11.8281 10.3416 11.8351C10.3566 11.8398 10.3743 11.8323 10.379 11.8174C10.3946 11.7819 10.3762 11.7707 10.343 11.7995Z" fill="#005B61"/>
</g>
</g>
<path d="M57.1716 14.896V16.843H52.1491V19.9274H55.9979V21.84H52.1491V26.923H49.7328V14.896H57.1716Z" fill="#F5F5F5"/>
<path d="M60.1104 16.24C59.6846 16.24 59.3279 16.1079 59.0403 15.8437C58.7641 15.568 58.6261 15.2291 58.6261 14.827C58.6261 14.425 58.7641 14.0919 59.0403 13.8277C59.3279 13.552 59.6846 13.4141 60.1104 13.4141C60.5361 13.4141 60.887 13.552 61.1632 13.8277C61.4508 14.0919 61.5947 14.425 61.5947 14.827C61.5947 15.2291 61.4508 15.568 61.1632 15.8437C60.887 16.1079 60.5361 16.24 60.1104 16.24ZM61.3013 17.3772V26.923H58.885V17.3772H61.3013Z" fill="#F5F5F5"/>
<path d="M68.9872 17.2394C70.1263 17.2394 71.0468 17.6012 71.7487 18.3249C72.4506 19.0371 72.8015 20.0365 72.8015 21.323V26.923H70.3852V21.6504C70.3852 20.8923 70.1953 20.3122 69.8156 19.9101C69.4359 19.4966 68.9182 19.2898 68.2623 19.2898C67.5949 19.2898 67.0657 19.4966 66.6744 19.9101C66.2947 20.3122 66.1049 20.8923 66.1049 21.6504V26.923H63.6886V17.3772H66.1049V18.5661C66.4271 18.1526 66.8355 17.8309 67.3303 17.6012C67.8366 17.36 68.3889 17.2394 68.9872 17.2394Z" fill="#F5F5F5"/>
<path d="M74.478 22.1157C74.478 21.1507 74.6678 20.2949 75.0475 19.5483C75.4387 18.8016 75.968 18.2273 76.6354 17.8252C77.3027 17.4231 78.0449 17.2221 78.8618 17.2221C79.4832 17.2221 80.0757 17.36 80.6395 17.6357C81.2033 17.8999 81.6521 18.256 81.9858 18.704V14.1723H84.4366V26.923H81.9858V25.5101C81.6866 25.9811 81.2666 26.3602 80.7258 26.6474C80.185 26.9345 79.5579 27.0781 78.8446 27.0781C78.0391 27.0781 77.3027 26.8714 76.6354 26.4578C75.968 26.0443 75.4387 25.4642 75.0475 24.7175C74.6678 23.9594 74.478 23.0921 74.478 22.1157ZM82.003 22.1501C82.003 21.5643 81.888 21.0646 81.6578 20.651C81.4277 20.226 81.117 19.9044 80.7258 19.6861C80.3346 19.4564 79.9146 19.3415 79.4659 19.3415C79.0172 19.3415 78.6029 19.4506 78.2232 19.6689C77.8435 19.8871 77.5329 20.2088 77.2912 20.6338C77.0611 21.0474 76.946 21.5413 76.946 22.1157C76.946 22.69 77.0611 23.1955 77.2912 23.632C77.5329 24.057 77.8435 24.3844 78.2232 24.6141C78.6144 24.8439 79.0287 24.9587 79.4659 24.9587C79.9146 24.9587 80.3346 24.8496 80.7258 24.6314C81.117 24.4016 81.4277 24.08 81.6578 23.6664C81.888 23.2414 82.003 22.736 82.003 22.1501Z" fill="#F5F5F5"/>
<path d="M86.3939 20.8234C86.3939 19.6287 86.6413 18.5661 87.1361 17.6357C87.6423 16.6937 88.3557 15.9643 89.2762 15.4474C90.1967 14.919 91.2553 14.6548 92.4519 14.6548C93.9708 14.6548 95.248 15.0626 96.2835 15.8781C97.3191 16.6823 97.9864 17.7793 98.2856 19.1692H94.6439C94.4253 18.7097 94.1203 18.3594 93.7291 18.1181C93.3494 17.8769 92.9064 17.7563 92.4002 17.7563C91.6177 17.7563 90.9907 18.0377 90.5189 18.6006C90.0587 19.152 89.8285 19.8929 89.8285 20.8234C89.8285 21.7653 90.0587 22.5177 90.5189 23.0806C90.9907 23.632 91.6177 23.9077 92.4002 23.9077C92.9064 23.9077 93.3494 23.7871 93.7291 23.5458C94.1203 23.3046 94.4253 22.9543 94.6439 22.4948H98.2856C97.9864 23.8847 97.3191 24.9875 96.2835 25.8031C95.248 26.6072 93.9708 27.0092 92.4519 27.0092C91.2553 27.0092 90.1967 26.7508 89.2762 26.2338C88.3557 25.7054 87.6423 24.976 87.1361 24.0455C86.6413 23.1036 86.3939 22.0295 86.3939 20.8234Z" fill="white"/>
<path d="M106.256 17.1705C107.361 17.1705 108.235 17.5438 108.88 18.2905C109.535 19.0256 109.863 20.025 109.863 21.2886V26.9231H106.481V21.7366C106.481 21.1852 106.337 20.7545 106.049 20.4443C105.761 20.1227 105.376 19.9618 104.893 19.9618C104.386 19.9618 103.989 20.1227 103.702 20.4443C103.414 20.7545 103.27 21.1852 103.27 21.7366V26.9231H99.8875V14.1723H103.27V18.6351C103.569 18.1986 103.972 17.8482 104.478 17.584C104.996 17.3083 105.589 17.1705 106.256 17.1705Z" fill="white"/>
<path d="M116.224 27.0437C115.258 27.0437 114.389 26.8427 113.618 26.4406C112.859 26.0386 112.26 25.4642 111.823 24.7175C111.386 23.9709 111.167 23.0921 111.167 22.0812C111.167 21.0818 111.386 20.2088 111.823 19.4621C112.272 18.7155 112.876 18.1411 113.635 17.7391C114.406 17.337 115.275 17.136 116.242 17.136C117.208 17.136 118.071 17.337 118.83 17.7391C119.601 18.1411 120.205 18.7155 120.643 19.4621C121.091 20.2088 121.316 21.0818 121.316 22.0812C121.316 23.0806 121.091 23.9594 120.643 24.7175C120.205 25.4642 119.601 26.0386 118.83 26.4406C118.059 26.8427 117.191 27.0437 116.224 27.0437ZM116.224 24.1145C116.696 24.1145 117.087 23.9421 117.398 23.5975C117.72 23.2414 117.881 22.736 117.881 22.0812C117.881 21.4265 117.72 20.9268 117.398 20.5821C117.087 20.2375 116.702 20.0652 116.242 20.0652C115.781 20.0652 115.396 20.2375 115.085 20.5821C114.774 20.9268 114.619 21.4265 114.619 22.0812C114.619 22.7475 114.769 23.2529 115.068 23.5975C115.367 23.9421 115.752 24.1145 116.224 24.1145Z" fill="white"/>
<path d="M137 17.2566L134.532 26.9231H130.735L129.389 21.0646L127.991 26.9231H124.211L121.76 17.2566H125.126L126.213 23.6665L127.645 17.2566H131.27L132.754 23.6837L133.824 17.2566H137Z" fill="white"/>
<defs>
<clipPath id="clip0_1_306">
<rect width="42.0696" height="42" fill="white"/>
</clipPath>
<clipPath id="clip1_1_306">
<rect width="26.6604" height="29.7907" fill="white" transform="translate(9.53906 6.10468)"/>
</clipPath>
</defs>
</svg>
